<?xml version="1.0" encoding="UTF-8"?>
<svg xmlns="http://www.w3.org/2000/svg" xmlns:xlink="http://www.w3.org/1999/xlink" x="0px" y="0px" version="1.1"  width="506.1px" height="105.9px" viewBox="0 0 506.1 105.9" style="enable-background:new 0 0 506.1 105.9;" xml:space="preserve">
<g id="surface1">
<path style=" stroke:none;fill-rule:nonzero;fill:#000000;fill-opacity:1;" d="M 191.089844 90.890625 C 191.089844 92.046875 190.320312 92.433594 188.78125 92.433594 C 187.339844 92.5 185.914062 92.761719 184.542969 93.203125 L 179.921875 94.359375 C 178.382812 94.742188 176.839844 95.515625 175.300781 95.898438 C 174.53125 95.898438 174.144531 95.128906 174.144531 93.589844 L 174.144531 88.589844 C 169.144531 93.589844 164.128906 95.90625 159.125 95.90625 C 154.421875 96.003906 149.917969 94.03125 146.800781 90.507812 C 143.570312 86.480469 141.925781 81.410156 142.179688 76.257812 C 141.851562 69.007812 144.179688 61.886719 148.726562 56.230469 C 152.644531 51.308594 158.613281 48.46875 164.902344 48.527344 C 166.578125 48.449219 168.257812 48.578125 169.902344 48.914062 C 171.417969 49.300781 172.851562 49.953125 174.136719 50.839844 L 174.136719 33.121094 C 174.296875 31.445312 174.167969 29.753906 173.753906 28.121094 C 173.355469 27.175781 172.683594 26.371094 171.824219 25.8125 C 170.824219 25.460938 169.792969 25.203125 168.742188 25.042969 C 167.972656 25.042969 167.589844 24.273438 167.589844 23.503906 C 167.589844 22.347656 168.359375 21.960938 170.285156 21.191406 C 171.722656 20.90625 173.136719 20.519531 174.519531 20.035156 C 176.828125 19.265625 178.757812 18.109375 180.683594 17.339844 C 181.660156 16.722656 182.699219 16.203125 183.777344 15.789062 C 184.546875 15.789062 185.316406 16.175781 185.316406 16.945312 C 185.316406 18.101562 184.933594 19.640625 184.933594 21.566406 C 184.933594 23.492188 184.546875 25.035156 184.546875 25.804688 L 184.546875 82.035156 C 184.421875 83.457031 184.550781 84.890625 184.933594 86.269531 C 184.933594 87.425781 185.703125 88.195312 187.242188 88.964844 C 187.847656 89.230469 188.507812 89.359375 189.167969 89.351562 C 190.320312 89.734375 191.089844 90.507812 191.089844 90.890625 Z M 174.144531 83.574219 L 174.144531 59.308594 C 172.636719 57.351562 170.8125 55.660156 168.742188 54.308594 C 166.886719 53.152344 164.765625 52.488281 162.582031 52.382812 C 159.214844 52.234375 156.007812 53.835938 154.109375 56.621094 C 151.90625 60.203125 150.835938 64.359375 151.027344 68.558594 C 150.898438 73.636719 152.378906 78.628906 155.261719 82.808594 C 157.402344 86.316406 161.179688 88.492188 165.285156 88.589844 C 167.445312 88.675781 169.582031 88.140625 171.449219 87.050781 C 173.101562 86.75 174.261719 85.25 174.144531 83.574219 Z M 174.144531 83.574219 "/>
<path style=" stroke:none;fill-rule:nonzero;fill:#000000;fill-opacity:1;" d="M 247.320312 91.277344 C 247.320312 92.433594 246.9375 93.203125 245.78125 93.203125 C 243.753906 93.597656 241.683594 93.726562 239.621094 93.589844 C 238.324219 93.503906 237.023438 93.636719 235.769531 93.972656 C 234.613281 94.359375 233.070312 94.742188 231.914062 95.128906 C 230.375 95.128906 229.605469 94.359375 229.605469 93.203125 L 229.605469 92.046875 L 229.992188 87.8125 C 227.742188 90.128906 225.144531 92.082031 222.289062 93.589844 C 219.902344 94.8125 217.269531 95.472656 214.589844 95.515625 C 204.960938 95.515625 199.953125 88.199219 199.953125 73.5625 L 199.953125 61.234375 C 200.050781 59.683594 199.921875 58.128906 199.566406 56.613281 C 199.390625 55.667969 198.832031 54.832031 198.027344 54.304688 C 197.152344 53.96875 196.25 53.710938 195.328125 53.535156 C 194.234375 53.296875 193.4375 52.34375 193.402344 51.222656 C 193.371094 50.703125 193.566406 50.195312 193.933594 49.828125 C 194.300781 49.460938 194.808594 49.265625 195.328125 49.296875 L 196.871094 49.296875 C 199.1875 49.382812 201.507812 49.253906 203.800781 48.910156 C 205.726562 48.527344 207.652344 48.527344 209.578125 48.140625 C 210.53125 48.257812 211.214844 49.113281 211.121094 50.066406 C 211.121094 51.609375 210.734375 53.921875 210.734375 55.847656 L 210.734375 72.40625 C 210.554688 76.730469 211.207031 81.042969 212.660156 85.117188 C 214.199219 87.8125 216.511719 88.96875 220.746094 88.96875 C 226.910156 88.96875 229.992188 85.886719 229.992188 79.726562 L 229.992188 61.234375 C 230.105469 59.558594 229.976562 57.875 229.605469 56.234375 C 229.230469 55.382812 228.710938 54.601562 228.066406 53.925781 C 227.078125 53.53125 226.042969 53.273438 224.984375 53.15625 C 223.886719 52.921875 223.09375 51.96875 223.058594 50.847656 C 223.027344 50.328125 223.21875 49.816406 223.585938 49.449219 C 223.957031 49.082031 224.464844 48.890625 224.984375 48.921875 L 226.910156 48.921875 C 229.226562 49.007812 231.546875 48.878906 233.84375 48.535156 C 235.769531 48.148438 237.695312 48.148438 239.621094 47.765625 C 240.390625 47.765625 240.777344 48.535156 240.777344 49.691406 C 240.792969 51.113281 240.664062 52.53125 240.390625 53.925781 L 240.390625 81.648438 C 240.246094 83.199219 240.378906 84.765625 240.777344 86.269531 C 240.777344 87.039062 241.546875 87.808594 242.316406 88.578125 C 242.703125 88.964844 243.472656 88.964844 245.011719 89.351562 C 246.550781 89.734375 247.320312 90.507812 247.320312 91.277344 Z M 247.320312 91.277344 "/>
<path style=" stroke:none;fill-rule:nonzero;fill:#000000;fill-opacity:1;" d="M 291.996094 85.5 C 291.996094 87.039062 290.070312 89.351562 286.21875 92.046875 C 281.710938 95.238281 276.339844 96.980469 270.816406 97.046875 C 265.371094 97.3125 260.113281 95.039062 256.570312 90.890625 C 252.859375 86.484375 250.933594 80.847656 251.171875 75.09375 C 250.945312 68.066406 253.585938 61.253906 258.488281 56.21875 C 262.855469 51.503906 269.007812 48.847656 275.4375 48.910156 C 279.011719 48.871094 282.515625 49.949219 285.449219 51.992188 C 287.339844 53.011719 288.625 54.871094 288.914062 56.992188 C 288.914062 58.148438 288.144531 59.691406 285.835938 61.230469 C 284.652344 62.363281 283.191406 63.164062 281.597656 63.539062 C 280.828125 63.539062 280.441406 63.152344 280.058594 62 C 279.851562 61.089844 279.59375 60.191406 279.289062 59.3125 C 278.164062 55.589844 274.699219 53.070312 270.8125 53.148438 C 264.265625 53.148438 260.800781 57.773438 260.800781 67.015625 C 260.582031 72.828125 262.054688 78.582031 265.035156 83.578125 C 267.480469 87.382812 271.683594 89.703125 276.207031 89.738281 C 278.734375 89.828125 281.246094 89.296875 283.523438 88.199219 C 285.835938 87.042969 288.144531 85.503906 290.457031 84.347656 C 291.613281 83.960938 291.996094 84.34375 291.996094 85.5 Z M 291.996094 85.5 "/>
<path style=" stroke:none;fill-rule:nonzero;fill:#000000;fill-opacity:1;" d="M 340.910156 90.496094 C 340.910156 91.652344 339.753906 92.425781 337.828125 93.964844 C 335.996094 95.175781 333.859375 95.84375 331.664062 95.890625 C 328.96875 95.890625 326.660156 93.964844 324.734375 90.113281 C 319.667969 94.109375 313.464844 96.402344 307.019531 96.660156 C 300.855469 96.660156 298.160156 93.195312 298.160156 86.261719 C 298.03125 81.695312 300.390625 77.421875 304.320312 75.097656 C 308.558594 72.402344 314.722656 70.097656 323.964844 68.550781 L 323.964844 66.242188 C 323.964844 57 320.496094 52.765625 313.949219 52.765625 C 312.023438 52.765625 310.484375 53.148438 310.097656 53.921875 C 309.203125 54.992188 308.785156 56.382812 308.941406 57.773438 L 308.941406 58.542969 C 309.039062 59.804688 308.621094 61.054688 307.785156 62.007812 C 305.917969 63.441406 303.585938 64.128906 301.238281 63.933594 C 300.570312 64.035156 299.890625 63.898438 299.3125 63.546875 C 298.925781 63.160156 298.925781 62.390625 298.925781 61.238281 C 299.042969 57.941406 300.777344 54.917969 303.558594 53.148438 C 307.375 50.453125 311.976562 49.097656 316.644531 49.296875 C 323.578125 49.296875 328.585938 51.222656 331.664062 54.699219 C 332.910156 55.910156 333.605469 57.582031 333.59375 59.320312 C 333.953125 62 334.082031 64.707031 333.976562 67.40625 L 333.976562 83.207031 C 333.824219 85.015625 333.957031 86.839844 334.363281 88.609375 C 334.75 89.378906 335.519531 89.765625 337.445312 89.765625 L 339.371094 89.765625 C 340.527344 89.351562 340.910156 89.738281 340.910156 90.496094 Z M 323.578125 82.421875 L 323.578125 71.636719 C 318.578125 72.792969 314.722656 73.945312 312.410156 75.871094 C 310.136719 77.773438 308.863281 80.613281 308.945312 83.574219 C 308.945312 87.808594 310.871094 89.734375 315.105469 89.734375 C 317.578125 89.984375 320.050781 89.296875 322.039062 87.808594 C 323.285156 86.308594 323.84375 84.351562 323.578125 82.421875 Z M 323.578125 82.421875 "/>
<path style=" stroke:none;fill-rule:nonzero;fill:#000000;fill-opacity:1;" d="M 374.03125 89.351562 C 374.03125 90.890625 372.492188 92.046875 369.796875 93.972656 C 366.867188 95.671875 363.554688 96.601562 360.167969 96.671875 C 355.933594 96.671875 353.234375 95.515625 352.078125 93.203125 C 350.539062 90.894531 350.152344 87.042969 350.152344 82.035156 L 350.152344 57.386719 C 350.152344 55.847656 349.769531 55.078125 348.613281 55.078125 L 346.300781 55.078125 C 344.761719 55.078125 344.375 54.691406 344.375 53.921875 C 344.886719 52.722656 345.679688 51.667969 346.6875 50.839844 C 349.382812 48.144531 351.6875 45.839844 353.234375 43.90625 C 354.292969 42.421875 355.453125 41.003906 356.699219 39.671875 C 358.238281 37.746094 359.011719 36.589844 359.78125 36.589844 C 360.554688 36.589844 360.9375 37.359375 360.9375 38.515625 L 360.9375 48.527344 C 360.835938 49.195312 360.972656 49.875 361.324219 50.453125 C 361.710938 50.839844 362.09375 50.839844 362.863281 50.839844 L 368.265625 50.839844 C 369.378906 50.742188 370.441406 50.34375 371.347656 49.683594 C 371.890625 49.34375 372.40625 48.957031 372.886719 48.527344 C 373.65625 48.527344 373.65625 48.914062 373.65625 49.683594 C 373.742188 51.183594 373.335938 52.671875 372.5 53.921875 C 371.546875 55.035156 370.105469 55.609375 368.648438 55.460938 L 362.871094 55.460938 C 362.351562 55.429688 361.84375 55.621094 361.472656 55.988281 C 361.105469 56.359375 360.914062 56.867188 360.945312 57.386719 L 360.945312 81.648438 C 360.863281 83.984375 361.121094 86.320312 361.714844 88.582031 C 362.484375 90.121094 363.640625 90.507812 365.949219 90.507812 C 367.140625 90.4375 368.308594 90.175781 369.414062 89.738281 L 372.882812 88.582031 C 373.644531 88.1875 374.03125 88.589844 374.03125 89.351562 Z M 374.03125 89.351562 "/>
<path style=" stroke:none;fill-rule:nonzero;fill:#000000;fill-opacity:1;" d="M 400.992188 93.589844 C 400.992188 94.742188 400.222656 95.515625 398.683594 95.515625 C 397.390625 95.464844 396.105469 95.335938 394.828125 95.128906 C 393.042969 94.855469 391.238281 94.726562 389.429688 94.742188 C 382.882812 95.128906 379.414062 95.511719 379.03125 95.511719 C 377.875 95.511719 377.105469 95.125 377.105469 93.972656 C 377.105469 93.585938 377.875 92.433594 379.800781 91.277344 C 381.726562 90.121094 382.496094 87.808594 382.496094 84.726562 L 382.496094 62.777344 C 382.605469 61.605469 382.476562 60.425781 382.109375 59.308594 C 381.820312 58.515625 381.28125 57.839844 380.570312 57.382812 C 380.183594 56.996094 379.414062 56.996094 377.875 56.613281 C 376.335938 56.613281 375.5625 55.84375 375.5625 54.6875 C 375.53125 54.167969 375.726562 53.660156 376.09375 53.292969 C 376.460938 52.921875 376.96875 52.730469 377.488281 52.761719 C 379.578125 52.402344 381.636719 51.886719 383.652344 51.222656 C 385.160156 50.816406 386.589844 50.164062 387.886719 49.296875 C 389.210938 48.730469 390.496094 48.089844 391.738281 47.371094 C 392.511719 47.371094 392.894531 48.140625 392.894531 49.679688 L 392.894531 82.035156 C 392.785156 83.84375 392.914062 85.660156 393.28125 87.433594 C 393.632812 88.617188 394.296875 89.683594 395.207031 90.515625 C 396.292969 91.171875 397.457031 91.691406 398.675781 92.054688 C 400.605469 92.046875 400.992188 92.816406 400.992188 93.589844 Z M 394.828125 30.808594 C 394.570312 32.75 393.613281 34.527344 392.132812 35.808594 C 390.207031 38.121094 389.050781 38.890625 388.28125 38.890625 C 387.125 38.890625 385.972656 37.734375 384.046875 35.808594 C 382.738281 34.546875 381.804688 32.949219 381.351562 31.1875 C 381.851562 29.132812 382.917969 27.261719 384.433594 25.789062 C 385.484375 24.296875 386.785156 22.996094 388.28125 21.953125 C 389.050781 21.953125 390.207031 23.109375 392.132812 25.417969 C 393.425781 26.992188 394.347656 28.832031 394.828125 30.808594 Z M 394.828125 30.808594 "/>
<path style=" stroke:none;fill-rule:nonzero;fill:#000000;fill-opacity:1;" d="M 452.214844 72.019531 C 452.46875 78.632812 449.957031 85.050781 445.285156 89.734375 C 440.710938 94.339844 434.4375 96.847656 427.953125 96.667969 C 421.890625 96.800781 416.039062 94.433594 411.777344 90.121094 C 407.382812 85.59375 405.019531 79.476562 405.226562 73.175781 C 405.046875 66.574219 407.546875 60.183594 412.160156 55.457031 C 416.429688 50.832031 422.425781 48.183594 428.722656 48.140625 C 435.128906 48.003906 441.339844 50.351562 446.054688 54.6875 C 450.335938 59.414062 452.554688 65.652344 452.214844 72.019531 Z M 442.203125 78.183594 C 442.394531 71.636719 440.9375 65.144531 437.964844 59.308594 C 435.269531 54.308594 431.804688 51.992188 427.566406 51.992188 C 424.167969 51.785156 420.875 53.21875 418.707031 55.84375 C 416.398438 58.542969 415.628906 62.007812 415.628906 67.015625 C 415.480469 73.433594 416.933594 79.785156 419.863281 85.5 C 422.558594 90.5 426.410156 92.816406 430.648438 92.816406 C 433.921875 92.941406 437.0625 91.511719 439.121094 88.964844 C 441.332031 85.820312 442.414062 82.019531 442.203125 78.183594 Z M 442.203125 78.183594 "/>
<path style=" stroke:none;fill-rule:nonzero;fill:#000000;fill-opacity:1;" d="M 511.527344 93.589844 C 511.527344 95.128906 510.757812 95.515625 509.21875 95.515625 C 508.050781 95.503906 506.890625 95.375 505.753906 95.128906 C 503.84375 94.808594 501.90625 94.679688 499.972656 94.742188 C 493.425781 95.128906 489.960938 95.511719 489.574219 95.511719 C 488.417969 95.511719 487.648438 95.125 487.648438 93.972656 C 487.648438 93.203125 488.035156 92.816406 488.804688 92.046875 C 489.960938 91.277344 490.730469 90.507812 491.5 90.121094 C 491.960938 89.390625 492.347656 88.617188 492.65625 87.808594 C 492.996094 86.6875 493.125 85.511719 493.042969 84.34375 L 493.042969 72.019531 C 493.230469 67.824219 492.574219 63.632812 491.117188 59.695312 C 489.445312 56.859375 486.308594 55.21875 483.027344 55.460938 C 476.867188 55.460938 473.785156 58.542969 473.785156 64.703125 L 473.785156 82.035156 C 473.671875 83.84375 473.804688 85.660156 474.171875 87.4375 C 474.582031 88.476562 475.246094 89.402344 476.097656 90.132812 C 477.277344 90.875 478.582031 91.394531 479.949219 91.671875 C 481.488281 92.058594 482.257812 92.828125 482.257812 93.980469 C 482.257812 95.136719 481.488281 95.90625 479.5625 95.90625 C 478.140625 95.882812 476.726562 95.753906 475.324219 95.523438 C 473.414062 95.246094 471.480469 95.117188 469.546875 95.136719 C 463 95.523438 459.535156 95.90625 459.148438 95.90625 C 457.992188 95.90625 457.222656 95.519531 457.222656 94.367188 C 457.222656 93.980469 457.992188 92.824219 459.917969 91.671875 C 461.84375 90.515625 462.613281 88.203125 462.613281 85.121094 L 462.613281 63.171875 C 462.726562 62.003906 462.59375 60.824219 462.226562 59.707031 C 461.941406 58.914062 461.398438 58.234375 460.6875 57.78125 C 460.300781 57.394531 459.53125 57.394531 457.992188 57.011719 C 456.453125 57.011719 455.683594 56.238281 455.683594 55.085938 C 455.683594 53.929688 456.839844 53.15625 458.765625 52.773438 C 460.632812 52.546875 462.457031 52.027344 464.164062 51.234375 C 466.160156 50.496094 468.09375 49.59375 469.941406 48.539062 C 470.777344 48.023438 471.6875 47.632812 472.636719 47.382812 C 472.957031 47.335938 473.277344 47.445312 473.503906 47.671875 C 473.730469 47.898438 473.839844 48.21875 473.792969 48.539062 L 473.792969 50.464844 L 473.40625 56.625 C 475.65625 54.308594 478.253906 52.359375 481.109375 50.847656 C 483.496094 49.625 486.132812 48.964844 488.8125 48.921875 C 498.441406 48.921875 503.449219 56.238281 503.449219 70.875 L 503.449219 82.429688 C 503.335938 84.105469 503.464844 85.789062 503.835938 87.429688 C 504.09375 88.652344 504.773438 89.742188 505.761719 90.511719 C 506.703125 91.179688 507.742188 91.699219 508.84375 92.050781 C 510.757812 92.046875 511.527344 92.433594 511.527344 93.589844 Z M 511.527344 93.589844 "/>
<path style=" stroke:none;fill-rule:nonzero;fill:#000000;fill-opacity:1;" d="M 40.824219 20.796875 C 40.824219 32.070312 31.683594 41.210938 20.410156 41.210938 C 9.140625 41.210938 0 32.070312 0 20.796875 C 0 9.523438 9.140625 0.386719 20.410156 0.386719 C 31.683594 0.386719 40.824219 9.523438 40.824219 20.796875 Z M 40.824219 20.796875 "/>
<path style=" stroke:none;fill-rule:nonzero;fill:#000000;fill-opacity:1;" d="M 68.941406 8.089844 C 68.941406 12.554688 65.320312 16.175781 60.851562 16.175781 C 56.386719 16.175781 52.765625 12.554688 52.765625 8.089844 C 52.765625 3.621094 56.386719 0 60.851562 0 C 65.320312 0 68.941406 3.621094 68.941406 8.089844 Z M 68.941406 8.089844 "/>
<path style=" stroke:none;fill-rule:nonzero;fill:#000000;fill-opacity:1;" d="M 78.957031 37.542969 C 76.269531 40.773438 74.894531 44.898438 75.105469 49.097656 C 74.992188 50.132812 75.429688 51.15625 76.261719 51.792969 C 77.601562 52.34375 79.046875 52.605469 80.496094 52.5625 L 90.894531 52.5625 C 94.253906 52.699219 97.613281 52.441406 100.910156 51.792969 C 102.277344 51.023438 103.042969 49.496094 102.835938 47.941406 C 102.976562 43.984375 101.597656 40.125 98.984375 37.15625 C 96.347656 34.226562 92.515625 32.667969 88.585938 32.921875 C 84.835938 32.902344 81.285156 34.605469 78.957031 37.542969 Z M 78.957031 37.542969 "/>
<path style=" stroke:none;fill-rule:nonzero;fill:#000000;fill-opacity:1;" d="M 118.625 48.710938 C 118.941406 50.097656 119.074219 51.523438 119.011719 52.945312 C 119.011719 54.871094 118.625 56.027344 117.855469 56.410156 C 116.261719 57.023438 114.554688 57.285156 112.855469 57.183594 L 80.496094 57.183594 C 78.792969 57.078125 77.089844 57.339844 75.496094 57.953125 C 74.726562 58.335938 74.339844 59.492188 74.339844 61.417969 C 74.273438 67.511719 76.46875 73.414062 80.503906 77.980469 C 84.464844 82.800781 90.441406 85.503906 96.679688 85.296875 C 100.273438 85.3125 103.828125 84.523438 107.078125 82.988281 C 110.160156 81.0625 113.238281 79.523438 116.707031 77.589844 C 117.863281 77.589844 118.246094 78.359375 118.246094 79.515625 C 118.246094 82.210938 115.550781 85.292969 109.773438 88.757812 C 103.09375 93.003906 95.347656 95.273438 87.433594 95.304688 C 79.851562 95.476562 72.5625 92.390625 67.40625 86.832031 C 61.871094 80.746094 58.960938 72.722656 59.3125 64.503906 C 59.3125 54.101562 62.007812 45.628906 67.785156 39.082031 C 71.371094 34.757812 76.21875 31.660156 81.648438 30.222656 L 78.953125 30.222656 C 52.367188 30.222656 30.8125 51.777344 30.8125 78.367188 C 30.8125 104.953125 52.367188 126.507812 78.953125 126.507812 C 105.542969 126.507812 127.097656 104.953125 127.097656 78.367188 C 128.222656 67.757812 125.183594 57.125 118.625 48.710938 Z M 118.625 48.710938 "/>
<path style=" stroke:none;fill-rule:nonzero;fill:#000000;fill-opacity:1;" d="M 476.09375 135.113281 C 474.257812 135.171875 472.496094 135.851562 471.09375 137.039062 C 469.519531 138.203125 468.648438 140.089844 468.785156 142.039062 L 483.421875 142.039062 C 483.390625 140.121094 482.554688 138.304688 481.109375 137.039062 C 479.886719 135.570312 477.988281 134.839844 476.09375 135.113281 Z M 476.09375 135.113281 "/>
<path style=" stroke:none;fill-rule:nonzero;fill:#000000;fill-opacity:1;" d="M 494.964844 113.933594 L 332.050781 113.933594 C 325.410156 113.917969 319.035156 116.550781 314.335938 121.25 C 309.636719 125.949219 307.003906 132.324219 307.019531 138.964844 C 307.003906 145.609375 309.636719 151.984375 314.335938 156.683594 C 319.035156 161.378906 325.410156 164.011719 332.050781 164 L 494.964844 164 C 501.609375 164.011719 507.984375 161.378906 512.683594 156.683594 C 517.378906 151.984375 520.011719 145.609375 520 138.964844 C 519.757812 125.242188 508.691406 114.175781 494.964844 113.933594 Z M 369.019531 149.363281 C 367.582031 151.953125 365.445312 154.089844 362.855469 155.527344 C 360.292969 157.046875 357.363281 157.847656 354.382812 157.835938 C 351.398438 157.898438 348.460938 157.097656 345.917969 155.53125 C 343.328125 154.097656 341.191406 151.960938 339.757812 149.371094 C 336.675781 143.867188 336.675781 137.15625 339.757812 131.652344 C 341.191406 129.0625 343.328125 126.929688 345.917969 125.492188 C 348.480469 123.96875 351.410156 123.171875 354.390625 123.183594 C 357.378906 123.121094 360.324219 123.921875 362.867188 125.492188 C 365.457031 126.929688 367.59375 129.0625 369.027344 131.652344 C 372.109375 137.15625 372.109375 143.867188 369.027344 149.371094 Z M 400.984375 157.453125 L 395.585938 157.453125 L 395.585938 142.433594 C 395.667969 140.449219 394.980469 138.511719 393.65625 137.03125 C 392.335938 135.71875 390.519531 135.019531 388.65625 135.105469 C 386.808594 135.09375 385.019531 135.78125 383.65625 137.03125 C 382.335938 138.511719 381.644531 140.449219 381.730469 142.433594 L 381.730469 157.453125 L 376.332031 157.453125 L 376.332031 130.878906 L 381.730469 130.878906 L 381.730469 133.960938 C 382.628906 132.769531 383.824219 131.839844 385.199219 131.265625 C 386.644531 130.605469 388.238281 130.339844 389.820312 130.492188 C 391.800781 130.503906 393.765625 130.898438 395.597656 131.648438 C 397.320312 132.40625 398.695312 133.78125 399.449219 135.503906 C 400.410156 137.417969 400.9375 139.519531 400.988281 141.664062 L 400.988281 157.464844 Z M 413.695312 157.453125 L 408.292969 157.453125 L 408.292969 121.632812 L 413.695312 121.632812 Z M 426.402344 157.453125 L 421.003906 157.453125 L 421.003906 130.878906 L 426.417969 130.878906 Z M 426.019531 126.253906 C 425.433594 126.933594 424.601562 127.347656 423.707031 127.40625 C 422.148438 127.421875 420.738281 126.488281 420.144531 125.046875 C 419.550781 123.605469 419.894531 121.945312 421.011719 120.859375 C 421.699219 120.097656 422.683594 119.675781 423.707031 119.703125 C 424.640625 119.585938 425.550781 120.042969 426.019531 120.859375 C 426.757812 121.5625 427.179688 122.539062 427.179688 123.558594 C 427.179688 124.582031 426.757812 125.558594 426.019531 126.261719 Z M 457.984375 157.453125 L 452.585938 157.453125 L 452.585938 142.433594 C 452.667969 140.449219 451.976562 138.511719 450.65625 137.03125 C 449.335938 135.71875 447.519531 135.019531 445.65625 135.105469 C 443.808594 135.09375 442.019531 135.78125 440.65625 137.03125 C 439.335938 138.511719 438.644531 140.449219 438.730469 142.433594 L 438.730469 157.453125 L 433.332031 157.453125 L 433.332031 130.878906 L 438.730469 130.878906 L 438.730469 133.960938 C 439.628906 132.769531 440.824219 131.839844 442.199219 131.265625 C 443.644531 130.605469 445.238281 130.339844 446.820312 130.492188 C 448.800781 130.503906 450.765625 130.898438 452.597656 131.648438 C 454.238281 132.519531 455.582031 133.863281 456.449219 135.503906 C 457.410156 137.417969 457.9375 139.519531 457.988281 141.664062 Z M 489.183594 146.28125 L 468.777344 146.28125 C 468.640625 148.234375 469.511719 150.121094 471.085938 151.28125 C 472.601562 152.542969 474.515625 153.222656 476.484375 153.207031 C 479.175781 153.476562 481.710938 151.894531 482.648438 149.355469 L 488.417969 149.355469 C 487.605469 151.761719 486.136719 153.898438 484.183594 155.519531 C 481.949219 157.132812 479.234375 157.949219 476.480469 157.828125 C 474.070312 157.957031 471.675781 157.425781 469.546875 156.289062 C 467.546875 155.117188 465.9375 153.375 464.925781 151.289062 C 463.789062 149.023438 463.257812 146.5 463.386719 143.96875 C 463.300781 141.441406 463.828125 138.929688 464.925781 136.652344 C 465.945312 134.667969 467.5625 133.050781 469.546875 132.03125 C 471.675781 130.894531 474.070312 130.359375 476.480469 130.488281 C 478.765625 130.355469 481.039062 130.890625 483.027344 132.03125 C 487.148438 134.359375 489.550781 138.863281 489.191406 143.585938 C 489.191406 144.359375 489.191406 145.515625 489.191406 146.285156 Z M 489.183594 146.28125 "/>
<path style=" stroke:none;fill-rule:nonzero;fill:#000000;fill-opacity:1;" d="M 360.167969 129.722656 C 358.425781 128.679688 356.421875 128.144531 354.390625 128.183594 C 352.351562 128.097656 350.335938 128.632812 348.613281 129.722656 C 346.839844 130.722656 345.375 132.1875 344.375 133.957031 C 343.238281 135.945312 342.703125 138.21875 342.835938 140.507812 C 342.703125 142.792969 343.238281 145.066406 344.375 147.054688 C 345.265625 148.90625 346.757812 150.402344 348.613281 151.289062 C 350.355469 152.332031 352.359375 152.867188 354.390625 152.828125 C 356.429688 152.917969 358.445312 152.378906 360.167969 151.289062 C 361.9375 150.289062 363.402344 148.824219 364.402344 147.054688 C 365.5 145.050781 366.03125 142.789062 365.945312 140.507812 C 366.03125 138.222656 365.5 135.960938 364.402344 133.957031 C 363.402344 132.1875 361.9375 130.722656 360.167969 129.722656 Z M 360.167969 129.722656 "/>
</g>
</svg>
